<svg width="193" height="119" viewBox="0 0 193 119" fill="none" xmlns="http://www.w3.org/2000/svg">
<mask id="mask0" mask-type="alpha" maskUnits="userSpaceOnUse" x="0" y="0" width="193" height="120">
<rect y="0.296875" width="192.381" height="118.703" rx="8" fill="#C4C4C4"/>
</mask>
<g mask="url(#mask0)">
<path d="M58.7348 94.1438C18.2769 69.2124 -15.941 69.5043 -32.1194 73.6606C-35.2319 74.4602 -37.1707 77.3754 -37.2094 80.5887L-38.1077 155.194C-38.1609 159.612 -34.6226 163.237 -30.2046 163.29L210.38 166.187C214.665 166.238 218.231 162.91 218.474 158.631L218.518 157.859C220.236 127.559 222.336 90.5253 215.641 99.9275C206.476 112.798 115.378 129.049 58.7348 94.1438Z" fill="#662D91" fill-opacity="0.05"/>
<path d="M49.7486 100.604C-13.7265 72.0268 -54.4547 87.8565 -69.9258 101.652C-71.993 103.496 -72.5664 106.406 -71.7545 109.054L-28.8341 249.052C-27.5391 253.276 -23.0648 255.651 -18.8406 254.356L268.568 166.243C272.705 164.975 275.088 160.66 273.945 156.486C259.165 102.517 239.956 30.9031 237.084 50.5322C233.326 76.2216 135.227 139.087 49.7486 100.604Z" fill="#662D91" fill-opacity="0.05"/>
<path d="M126.236 85.5947C167.687 52.0272 202.37 53.584 218.141 59.7217C220.816 60.763 222.336 63.4665 222.336 66.3375V172.398C222.336 176.817 218.754 180.398 214.336 180.398H-26.1807C-30.5006 180.398 -34.0406 176.972 -34.1827 172.655C-35.55 131.122 -37.5059 77.6682 -30.7285 90.8528C-21.7191 108.38 69.176 131.801 126.236 85.5947Z" fill="#662D91" fill-opacity="0.05"/>
</g>
</svg>
