<svg width="24" height="24" viewBox="0 0 24 24" fill="none" xmlns="http://www.w3.org/2000/svg">
<path d="M16.8395 5.796C17.2192 5.796 17.533 6.07816 17.5826 6.44423L17.5895 6.546L17.5894 18.346L20.3856 15.5386C20.6778 15.245 21.1527 15.2439 21.4463 15.5361C21.7131 15.8018 21.7383 16.2184 21.5211 16.5125L21.4487 16.5968L17.3709 20.6934C17.3463 20.7176 17.3213 20.7395 17.2949 20.7597L17.3709 20.6934C17.3341 20.7304 17.2945 20.7627 17.2526 20.7904C17.238 20.7995 17.2228 20.8088 17.2073 20.8175C17.1929 20.8262 17.1783 20.8338 17.1634 20.841C17.1488 20.8474 17.1339 20.854 17.1188 20.86C17.0996 20.8682 17.08 20.8752 17.0601 20.8813C17.0484 20.8844 17.0364 20.8878 17.0242 20.8909C17.0026 20.8968 16.9809 20.9013 16.9591 20.9048C16.9489 20.9059 16.9382 20.9074 16.9274 20.9087C16.9027 20.9121 16.8783 20.9137 16.8539 20.9142C16.849 20.9137 16.8443 20.9138 16.8395 20.9138L16.8249 20.9142C16.8004 20.9137 16.776 20.9121 16.7517 20.9092L16.8395 20.9138C16.7986 20.9138 16.7585 20.9105 16.7194 20.9042C16.6978 20.9013 16.6761 20.8968 16.6546 20.8913C16.6432 20.8879 16.6318 20.8848 16.6205 20.8813C16.5991 20.8753 16.5777 20.8678 16.5566 20.8592C16.5451 20.8539 16.534 20.8491 16.523 20.8439C16.5057 20.8366 16.4884 20.8277 16.4714 20.8181C16.4561 20.8087 16.4409 20.7995 16.4262 20.7897C16.4146 20.7828 16.4032 20.7748 16.392 20.7665L16.384 20.7597C16.3576 20.7395 16.3326 20.7176 16.3092 20.6941L16.3078 20.6934L12.23 16.5968C11.9378 16.3032 11.9389 15.8283 12.2325 15.5361C12.4994 15.2705 12.9161 15.2472 13.2092 15.4658L13.2931 15.5386L16.0894 18.348L16.0895 6.546C16.0895 6.13179 16.4253 5.796 16.8395 5.796ZM6.91104 3.08245L6.92565 3.08203C6.95009 3.0825 6.97451 3.08416 6.99882 3.087L6.91104 3.08245C6.9519 3.08245 6.99199 3.08571 7.03108 3.092C7.05245 3.09492 7.07391 3.09934 7.09518 3.1047C7.10769 3.10837 7.12044 3.11195 7.13305 3.11585C7.15274 3.1214 7.1718 3.12815 7.19061 3.13569C7.20422 3.14175 7.21799 3.14777 7.23154 3.15418C7.24765 3.16115 7.2635 3.16934 7.27912 3.17814C7.29248 3.18637 7.30572 3.19439 7.31868 3.20279C7.33201 3.21072 7.34537 3.22 7.35847 3.22977L7.44271 3.30279L11.5205 7.39946C11.8127 7.69302 11.8116 8.1679 11.518 8.46011C11.2512 8.72576 10.8344 8.74901 10.5413 8.53047L10.4574 8.45766L7.66037 5.64703L7.66104 17.4502C7.66104 17.8644 7.32525 18.2002 6.91104 18.2002C6.53134 18.2002 6.21755 17.9181 6.16789 17.552L6.16104 17.4502L6.16037 5.64803L3.36493 8.45766C3.09928 8.72454 2.68267 8.74971 2.38856 8.53254L2.30427 8.46011C2.03739 8.19446 2.01222 7.77786 2.2294 7.48374L2.30182 7.39946L6.3796 3.30279L6.42376 3.26229C6.43413 3.25342 6.44475 3.24483 6.45559 3.23652L6.3796 3.30279C6.41639 3.26583 6.45607 3.2335 6.49792 3.20582C6.51252 3.19672 6.5277 3.18744 6.54322 3.17869C6.55762 3.17 6.57227 3.16238 6.58711 3.15528C6.60175 3.1488 6.61661 3.14226 6.63171 3.13619C6.65089 3.12799 6.67056 3.12104 6.69044 3.11494C6.70254 3.11169 6.71493 3.10823 6.72744 3.10508C6.74759 3.09955 6.76795 3.09532 6.78843 3.09194C6.80075 3.0904 6.81282 3.08872 6.82498 3.08733C6.84813 3.08415 6.87188 3.08254 6.89565 3.08205C6.9009 3.0825 6.90596 3.08245 6.91104 3.08245Z" fill="#2A2A2A"/>
</svg>
